<svg xmlns="http://www.w3.org/2000/svg" viewBox="0 0 512 512" width="100%" height="100%">
  <rect width="512" height="512" rx="128" fill="#FF4500"/>
  
  <g transform="translate(0, -20)">
    <rect x="196" y="110" width="120" height="90" rx="25" fill="#FFFFFF"/>
    <ellipse cx="226" cy="155" rx="12" ry="12" fill="#FF4500"/>
    <ellipse cx="286" cy="155" rx="12" ry="12" fill="#FF4500"/>
    <line x1="256" y1="110" x2="256" y2="85" stroke="#FFFFFF" stroke-width="8" stroke-linecap="round"/>
    <circle cx="256" cy="80" r="10" fill="#FFFFFF"/>
    
    <rect x="181" y="215" width="150" height="130" rx="20" fill="#FFFFFF"/>
    <rect x="211" y="245" width="90" height="40" rx="10" fill="#FF4500" opacity="0.2"/>
    <circle cx="236" cy="265" r="8" fill="#FF4500"/>
    <circle cx="276" cy="265" r="8" fill="#FF4500"/>
    
    <rect x="141" y="225" width="30" height="80" rx="15" fill="#FFFFFF"/>
    
    <g transform="translate(341, 225) rotate(-45 15 15)">
      <rect x="0" y="0" width="30" height="90" rx="15" fill="#FFFFFF"/>
      <circle cx="15" cy="95" r="18" fill="#FFFFFF"/>
    </g>
  </g>

  <text x="256" y="445" 
        font-family="system-ui, -apple-system, BlinkMacSystemFont, 'Segoe UI', Roboto, sans-serif" 
        font-size="34" 
        font-weight="900" 
        fill="#FFFFFF" 
        text-anchor="middle" 
        letter-spacing="1">
    AetherCore BOT
  </text>
</svg>
